<svg version="1.1" id="Layer_1" xmlns="http://www.w3.org/2000/svg" x="0" y="0" viewBox="0 0 94.2 94.2" xml:space="preserve"><path fill="#FFF" d="M12.1 11.8h69.1v69.1H12.1z"/><path fill="#0077B5" d="M87.2 0H7C3.1 0 0 3 0 6.8v80.6c0 3.8 3.1 6.8 7 6.8h80.3c3.8 0 7-3 7-6.8V6.8C94.2 3 91.1 0 87.2 0M14 35.3h14v45H14v-45zm5.4-6.3c-3.2-.6-5.7-3.2-6.4-6.4a8.06 8.06 0 0 1 9.5-9.5c3.2.6 5.8 3.2 6.4 6.3 1.1 5.8-3.8 10.7-9.5 9.6zm60.9 51.3h-14V58.4c0-5.2-.1-11.9-7.3-11.9-7.3 0-8.4 5.7-8.4 11.5v22.2h-14V35.3H50v6.1h.2c1.9-3.5 6.4-7.3 13.2-7.3 14.1 0 16.7 9.3 16.7 21.4v24.8z"/></svg>